<svg xmlns="http://www.w3.org/2000/svg" width="24" height="24" viewBox="0 0 24 24">
  <defs>
    <linearGradient id="woodSeatGradient" x1="0%" y1="0%" x2="0%" y2="100%">
      <stop offset="0%" style="stop-color:#DEB887;stop-opacity:1" />
      <stop offset="50%" style="stop-color:#CD853F;stop-opacity:1" />
      <stop offset="100%" style="stop-color:#8B4513;stop-opacity:1" />
    </linearGradient>
    <linearGradient id="woodBackrestGradient" x1="0%" y1="0%" x2="0%" y2="100%">
      <stop offset="0%" style="stop-color:#F4A460;stop-opacity:1" />
      <stop offset="50%" style="stop-color:#DEB887;stop-opacity:1" />
      <stop offset="100%" style="stop-color:#A0522D;stop-opacity:1" />
    </linearGradient>
    <linearGradient id="woodLegGradient" x1="0%" y1="0%" x2="100%" y2="0%">
      <stop offset="0%" style="stop-color:#CD853F;stop-opacity:1" />
      <stop offset="100%" style="stop-color:#8B4513;stop-opacity:1" />
    </linearGradient>
    <pattern id="woodGrain" patternUnits="userSpaceOnUse" width="20" height="2">
      <rect width="20" height="2" fill="#DEB887"/>
      <line x1="0" y1="1" x2="20" y2="1" stroke="#CD853F" stroke-width="0.3" opacity="0.6"/>
    </pattern>
  </defs>
  
  <!-- Shadow -->
  <ellipse cx="12.5" cy="20.5" rx="8" ry="1.5" fill="#000" opacity="0.2"/>
  
  <!-- Left leg -->
  <rect x="5" y="14" width="1.5" height="6" fill="url(#woodLegGradient)" rx="0.3"/>
  
  <!-- Right leg -->
  <rect x="17.5" y="14" width="1.5" height="6" fill="url(#woodLegGradient)" rx="0.3"/>
  
  <!-- Seat -->
  <rect x="4" y="12" width="16" height="3" fill="url(#woodSeatGradient)" rx="0.5"/>
  <rect x="4" y="12" width="16" height="3" fill="url(#woodGrain)" opacity="0.3" rx="0.5"/>
  <rect x="4.2" y="12.2" width="15.6" height="0.6" fill="#F4A460" opacity="0.8" rx="0.3"/>
  
  <!-- Backrest -->
  <rect x="4.5" y="5" width="15" height="8" fill="url(#woodBackrestGradient)" rx="0.5"/>
  <rect x="4.5" y="5" width="15" height="8" fill="url(#woodGrain)" opacity="0.3" rx="0.5"/>
  <rect x="4.7" y="5.2" width="14.6" height="0.6" fill="#F4A460" opacity="0.8" rx="0.3"/>
  
  <!-- Wood grain lines -->
  <line x1="5" y1="7" x2="19" y2="7" stroke="#B8860B" stroke-width="0.2" opacity="0.5"/>
  <line x1="5" y1="9" x2="19" y2="9" stroke="#B8860B" stroke-width="0.2" opacity="0.5"/>
  <line x1="5" y1="11" x2="19" y2="11" stroke="#B8860B" stroke-width="0.2" opacity="0.5"/>
  
  <!-- Armrests -->
  <rect x="3.5" y="10" width="2" height="4" fill="url(#woodSeatGradient)" rx="0.5"/>
  <rect x="18.5" y="10" width="2" height="4" fill="url(#woodSeatGradient)" rx="0.5"/>
</svg>