<svg xmlns="http://www.w3.org/2000/svg" width="24" height="24" viewBox="0 0 24 24">
  <defs>
    <linearGradient id="metalSeatGradient" x1="0%" y1="0%" x2="0%" y2="100%">
      <stop offset="0%" style="stop-color:#E8E8E8;stop-opacity:1" />
      <stop offset="30%" style="stop-color:#C0C0C0;stop-opacity:1" />
      <stop offset="70%" style="stop-color:#A9A9A9;stop-opacity:1" />
      <stop offset="100%" style="stop-color:#808080;stop-opacity:1" />
    </linearGradient>
    <linearGradient id="metalBackrestGradient" x1="0%" y1="0%" x2="0%" y2="100%">
      <stop offset="0%" style="stop-color:#F5F5F5;stop-opacity:1" />
      <stop offset="30%" style="stop-color:#DCDCDC;stop-opacity:1" />
      <stop offset="70%" style="stop-color:#C0C0C0;stop-opacity:1" />
      <stop offset="100%" style="stop-color:#A9A9A9;stop-opacity:1" />
    </linearGradient>
    <linearGradient id="metalLegGradient" x1="0%" y1="0%" x2="100%" y2="0%">
      <stop offset="0%" style="stop-color:#C0C0C0;stop-opacity:1" />
      <stop offset="100%" style="stop-color:#808080;stop-opacity:1" />
    </linearGradient>
    <radialGradient id="metalShine" cx="25%" cy="25%" r="70%">
      <stop offset="0%" style="stop-color:#FFFFFF;stop-opacity:0.9" />
      <stop offset="50%" style="stop-color:#FFFFFF;stop-opacity:0.6" />
      <stop offset="100%" style="stop-color:#FFFFFF;stop-opacity:0" />
    </radialGradient>
    <pattern id="brushedMetal" patternUnits="userSpaceOnUse" width="1" height="8">
      <rect width="1" height="8" fill="none"/>
      <line x1="0.5" y1="0" x2="0.5" y2="8" stroke="#B0B0B0" stroke-width="0.3" opacity="0.4"/>
    </pattern>
    <radialGradient id="lightGlow" cx="50%" cy="50%" r="80%">
      <stop offset="0%" style="stop-color:#FFD700;stop-opacity:0.9" />
      <stop offset="40%" style="stop-color:#FFD700;stop-opacity:0.6" />
      <stop offset="80%" style="stop-color:#FFA500;stop-opacity:0.3" />
      <stop offset="100%" style="stop-color:#FFD700;stop-opacity:0" />
    </radialGradient>
    <radialGradient id="bulbGradient" cx="30%" cy="30%" r="70%">
      <stop offset="0%" style="stop-color:#FFFF99;stop-opacity:1" />
      <stop offset="50%" style="stop-color:#FFD700;stop-opacity:1" />
      <stop offset="100%" style="stop-color:#FFA500;stop-opacity:1" />
    </radialGradient>
  </defs>
  
  <!-- Large prominent light glow effect -->
  <circle cx="12" cy="3" r="6" fill="url(#lightGlow)"/>
  
  <!-- Shadow -->
  <ellipse cx="12.5" cy="20.5" rx="8" ry="1.5" fill="#000" opacity="0.25"/>
  
  <!-- Left leg -->
  <rect x="5" y="14" width="1.5" height="6" fill="url(#metalLegGradient)" rx="0.3"/>
  
  <!-- Right leg -->
  <rect x="17.5" y="14" width="1.5" height="6" fill="url(#metalLegGradient)" rx="0.3"/>
  
  <!-- Seat -->
  <rect x="4" y="12" width="16" height="3" fill="url(#metalSeatGradient)" rx="0.5"/>
  <rect x="4" y="12" width="16" height="3" fill="url(#brushedMetal)" rx="0.5"/>
  <rect x="4" y="12" width="16" height="3" fill="url(#metalShine)" rx="0.5"/>
  <rect x="4.2" y="12.2" width="15.6" height="0.8" fill="#F8F8F8" opacity="0.9" rx="0.3"/>
  
  <!-- Backrest -->
  <rect x="4.5" y="5" width="15" height="8" fill="url(#metalBackrestGradient)" rx="0.5"/>
  <rect x="4.5" y="5" width="15" height="8" fill="url(#brushedMetal)" rx="0.5"/>
  <rect x="4.5" y="5" width="15" height="8" fill="url(#metalShine)" rx="0.5"/>
  <rect x="4.7" y="5.2" width="14.6" height="0.8" fill="#FFFFFF" opacity="0.9" rx="0.3"/>
  
  <!-- Metal rivets/bolts -->
  <circle cx="6" cy="7" r="0.4" fill="#696969"/>
  <circle cx="18" cy="7" r="0.4" fill="#696969"/>
  <circle cx="6" cy="10" r="0.4" fill="#696969"/>
  <circle cx="18" cy="10" r="0.4" fill="#696969"/>
  <circle cx="12" cy="8.5" r="0.3" fill="#696969"/>
  
  <!-- Rivet highlights -->
  <circle cx="6" cy="7" r="0.2" fill="#E0E0E0"/>
  <circle cx="18" cy="7" r="0.2" fill="#E0E0E0"/>
  <circle cx="6" cy="10" r="0.2" fill="#E0E0E0"/>
  <circle cx="18" cy="10" r="0.2" fill="#E0E0E0"/>
  <circle cx="12" cy="8.5" r="0.15" fill="#E0E0E0"/>
  
  <!-- Metal edge reflections -->
  <line x1="4.5" y1="5.5" x2="19.5" y2="5.5" stroke="#FFFFFF" stroke-width="0.3" opacity="0.8"/>
  <line x1="4" y1="12.5" x2="20" y2="12.5" stroke="#FFFFFF" stroke-width="0.3" opacity="0.8"/>
  
  <!-- Armrests -->
  <rect x="3.5" y="10" width="2" height="4" fill="url(#metalSeatGradient)" rx="0.5"/>
  <rect x="18.5" y="10" width="2" height="4" fill="url(#metalSeatGradient)" rx="0.5"/>
  <rect x="3.5" y="10" width="2" height="4" fill="url(#metalShine)" opacity="0.8" rx="0.5"/>
  <rect x="18.5" y="10" width="2" height="4" fill="url(#metalShine)" opacity="0.8" rx="0.5"/>
  
  <!-- Metal light fixture pole -->
  <rect x="11.2" y="1" width="1.6" height="4" fill="#808080" rx="0.3"/>
  
  <!-- Large prominent light bulb -->
  <circle cx="12" cy="2.8" r="1.8" fill="url(#bulbGradient)" stroke="#FFA500" stroke-width="0.2"/>
  <circle cx="12" cy="2.8" r="1.3" fill="#FFFF99" opacity="0.9"/>
  
  <!-- Prominent light rays -->
  <g stroke="#FFD700" stroke-width="0.6" opacity="0.8">
    <line x1="9.5" y1="1" x2="8.5" y2="0"/>
    <line x1="14.5" y1="1" x2="15.5" y2="0"/>
    <line x1="8" y1="2.8" x2="6.5" y2="2.8"/>
    <line x1="16" y1="2.8" x2="17.5" y2="2.8"/>
    <line x1="9.5" y1="4.6" x2="8.5" y2="5.6"/>
    <line x1="14.5" y1="4.6" x2="15.5" y2="5.6"/>
    <line x1="12" y1="0.5" x2="12" y2="-0.5"/>
    <line x1="12" y1="5.1" x2="12" y2="6.1"/>
  </g>
</svg>