<svg xmlns="http://www.w3.org/2000/svg" width="24" height="24" viewBox="0 0 24 24">
  <defs>
    <linearGradient id="seatGradient" x1="0%" y1="0%" x2="0%" y2="100%">
      <stop offset="0%" style="stop-color:#8B7355;stop-opacity:1" />
      <stop offset="100%" style="stop-color:#5D4E37;stop-opacity:1" />
    </linearGradient>
    <linearGradient id="backrestGradient" x1="0%" y1="0%" x2="0%" y2="100%">
      <stop offset="0%" style="stop-color:#A0926B;stop-opacity:1" />
      <stop offset="100%" style="stop-color:#6B5B3D;stop-opacity:1" />
    </linearGradient>
    <linearGradient id="legGradient" x1="0%" y1="0%" x2="100%" y2="0%">
      <stop offset="0%" style="stop-color:#7A6B4F;stop-opacity:1" />
      <stop offset="100%" style="stop-color:#4A3D2A;stop-opacity:1" />
    </linearGradient>
    <radialGradient id="lightGlow" cx="50%" cy="50%" r="80%">
      <stop offset="0%" style="stop-color:#FFD700;stop-opacity:0.9" />
      <stop offset="40%" style="stop-color:#FFD700;stop-opacity:0.6" />
      <stop offset="80%" style="stop-color:#FFA500;stop-opacity:0.3" />
      <stop offset="100%" style="stop-color:#FFD700;stop-opacity:0" />
    </radialGradient>
    <radialGradient id="bulbGradient" cx="30%" cy="30%" r="70%">
      <stop offset="0%" style="stop-color:#FFFF99;stop-opacity:1" />
      <stop offset="50%" style="stop-color:#FFD700;stop-opacity:1" />
      <stop offset="100%" style="stop-color:#FFA500;stop-opacity:1" />
    </radialGradient>
  </defs>
  
  <!-- Large prominent light glow effect -->
  <circle cx="12" cy="3" r="6" fill="url(#lightGlow)"/>
  
  <!-- Shadow -->
  <ellipse cx="12.5" cy="20.5" rx="8" ry="1.5" fill="#000" opacity="0.2"/>
  
  <!-- Left leg -->
  <rect x="5" y="14" width="1.5" height="6" fill="url(#legGradient)" rx="0.3"/>
  
  <!-- Right leg -->
  <rect x="17.5" y="14" width="1.5" height="6" fill="url(#legGradient)" rx="0.3"/>
  
  <!-- Seat -->
  <rect x="4" y="12" width="16" height="3" fill="url(#seatGradient)" rx="0.5"/>
  <rect x="4.2" y="12.2" width="15.6" height="0.6" fill="#9A8467" opacity="0.8" rx="0.3"/>
  
  <!-- Backrest -->
  <rect x="4.5" y="5" width="15" height="8" fill="url(#backrestGradient)" rx="0.5"/>
  <rect x="4.7" y="5.2" width="14.6" height="0.6" fill="#B5A678" opacity="0.8" rx="0.3"/>
  
  <!-- Armrests -->
  <rect x="3.5" y="10" width="2" height="4" fill="url(#seatGradient)" rx="0.5"/>
  <rect x="18.5" y="10" width="2" height="4" fill="url(#seatGradient)" rx="0.5"/>
  
  <!-- Large prominent light fixture pole -->
  <rect x="11.2" y="1" width="1.6" height="4" fill="#4A3D2A" rx="0.3"/>
  
  <!-- Large prominent light bulb -->
  <circle cx="12" cy="2.8" r="1.8" fill="url(#bulbGradient)" stroke="#FFA500" stroke-width="0.2"/>
  <circle cx="12" cy="2.8" r="1.3" fill="#FFFF99" opacity="0.9"/>
  
  <!-- Prominent light rays -->
  <g stroke="#FFD700" stroke-width="0.6" opacity="0.8">
    <line x1="9.5" y1="1" x2="8.5" y2="0"/>
    <line x1="14.5" y1="1" x2="15.5" y2="0"/>
    <line x1="8" y1="2.8" x2="6.5" y2="2.8"/>
    <line x1="16" y1="2.8" x2="17.5" y2="2.8"/>
    <line x1="9.5" y1="4.6" x2="8.5" y2="5.6"/>
    <line x1="14.5" y1="4.6" x2="15.5" y2="5.6"/>
    <line x1="12" y1="0.5" x2="12" y2="-0.5"/>
    <line x1="12" y1="5.1" x2="12" y2="6.1"/>
  </g>
  
  <!-- Secondary light rays for emphasis -->
  <g stroke="#FFA500" stroke-width="0.4" opacity="0.6">
    <line x1="10" y1="0.8" x2="9.2" y2="0"/>
    <line x1="14" y1="0.8" x2="14.8" y2="0"/>
    <line x1="7.5" y1="2.8" x2="6" y2="2.8"/>
    <line x1="16.5" y1="2.8" x2="18" y2="2.8"/>
    <line x1="10" y1="4.8" x2="9.2" y2="5.6"/>
    <line x1="14" y1="4.8" x2="14.8" y2="5.6"/>
  </g>
</svg>