<svg xmlns="http://www.w3.org/2000/svg" width="24" height="24" viewBox="0 0 24 24">
  <defs>
    <linearGradient id="woodSeatGradient" x1="0%" y1="0%" x2="0%" y2="100%">
      <stop offset="0%" style="stop-color:#D2691E;stop-opacity:1" />
      <stop offset="50%" style="stop-color:#A0522D;stop-opacity:1" />
      <stop offset="100%" style="stop-color:#654321;stop-opacity:1" />
    </linearGradient>
    <linearGradient id="woodBackrestGradient" x1="0%" y1="0%" x2="0%" y2="100%">
      <stop offset="0%" style="stop-color:#F4A460;stop-opacity:1" />
      <stop offset="50%" style="stop-color:#D2691E;stop-opacity:1" />
      <stop offset="100%" style="stop-color:#8B4513;stop-opacity:1" />
    </linearGradient>
    <linearGradient id="woodLegGradient" x1="0%" y1="0%" x2="100%" y2="0%">
      <stop offset="0%" style="stop-color:#A0522D;stop-opacity:1" />
      <stop offset="100%" style="stop-color:#654321;stop-opacity:1" />
    </linearGradient>
    <pattern id="woodGrain" patternUnits="userSpaceOnUse" width="16" height="1.5">
      <rect width="16" height="1.5" fill="none"/>
      <line x1="0" y1="0.7" x2="16" y2="0.7" stroke="#8B4513" stroke-width="0.4" opacity="0.8"/>
      <line x1="0" y1="1.2" x2="16" y2="1.2" stroke="#654321" stroke-width="0.2" opacity="0.6"/>
    </pattern>
    <radialGradient id="lightGlow" cx="50%" cy="50%" r="80%">
      <stop offset="0%" style="stop-color:#FFD700;stop-opacity:0.9" />
      <stop offset="40%" style="stop-color:#FFD700;stop-opacity:0.6" />
      <stop offset="80%" style="stop-color:#FFA500;stop-opacity:0.3" />
      <stop offset="100%" style="stop-color:#FFD700;stop-opacity:0" />
    </radialGradient>
    <radialGradient id="bulbGradient" cx="30%" cy="30%" r="70%">
      <stop offset="0%" style="stop-color:#FFFF99;stop-opacity:1" />
      <stop offset="50%" style="stop-color:#FFD700;stop-opacity:1" />
      <stop offset="100%" style="stop-color:#FFA500;stop-opacity:1" />
    </radialGradient>
  </defs>
  
  <!-- Large prominent light glow effect -->
  <circle cx="12" cy="3" r="6" fill="url(#lightGlow)"/>
  
  <!-- Shadow -->
  <ellipse cx="12.5" cy="20.5" rx="8" ry="1.5" fill="#000" opacity="0.25"/>
  
  <!-- Left leg -->
  <rect x="5" y="14" width="1.5" height="6" fill="url(#woodLegGradient)" rx="0.3"/>
  
  <!-- Right leg -->
  <rect x="17.5" y="14" width="1.5" height="6" fill="url(#woodLegGradient)" rx="0.3"/>
  
  <!-- Seat -->
  <rect x="4" y="12" width="16" height="3" fill="url(#woodSeatGradient)" rx="0.5"/>
  <rect x="4" y="12" width="16" height="3" fill="url(#woodGrain)" rx="0.5"/>
  <rect x="4.2" y="12.2" width="15.6" height="0.8" fill="#F4A460" opacity="0.9" rx="0.3"/>
  
  <!-- Backrest -->
  <rect x="4.5" y="5" width="15" height="8" fill="url(#woodBackrestGradient)" rx="0.5"/>
  <rect x="4.5" y="5" width="15" height="8" fill="url(#woodGrain)" rx="0.5"/>
  <rect x="4.7" y="5.2" width="14.6" height="0.8" fill="#F4A460" opacity="0.9" rx="0.3"/>
  
  <!-- Wood grain lines -->
  <line x1="5" y1="6.5" x2="19" y2="6.5" stroke="#A0522D" stroke-width="0.4" opacity="0.7"/>
  <line x1="5" y1="8.5" x2="19" y2="8.5" stroke="#8B4513" stroke-width="0.4" opacity="0.7"/>
  <line x1="5" y1="10.5" x2="19" y2="10.5" stroke="#A0522D" stroke-width="0.4" opacity="0.7"/>
  <line x1="5" y1="13.2" x2="19" y2="13.2" stroke="#8B4513" stroke-width="0.4" opacity="0.7"/>
  
  <!-- Wood texture knots -->
  <ellipse cx="7" cy="8" rx="0.8" ry="0.4" fill="#654321" opacity="0.6"/>
  <ellipse cx="16" cy="9.5" rx="0.6" ry="0.3" fill="#654321" opacity="0.6"/>
  
  <!-- Armrests -->
  <rect x="3.5" y="10" width="2" height="4" fill="url(#woodSeatGradient)" rx="0.5"/>
  <rect x="18.5" y="10" width="2" height="4" fill="url(#woodSeatGradient)" rx="0.5"/>
  
  <!-- Large prominent light fixture pole -->
  <rect x="11.2" y="1" width="1.6" height="4" fill="#654321" rx="0.3"/>
  
  <!-- Large prominent light bulb -->
  <circle cx="12" cy="2.8" r="1.8" fill="url(#bulbGradient)" stroke="#FFA500" stroke-width="0.2"/>
  <circle cx="12" cy="2.8" r="1.3" fill="#FFFF99" opacity="0.9"/>
  
  <!-- Prominent light rays -->
  <g stroke="#FFD700" stroke-width="0.6" opacity="0.8">
    <line x1="9.5" y1="1" x2="8.5" y2="0"/>
    <line x1="14.5" y1="1" x2="15.5" y2="0"/>
    <line x1="8" y1="2.8" x2="6.5" y2="2.8"/>
    <line x1="16" y1="2.8" x2="17.5" y2="2.8"/>
    <line x1="9.5" y1="4.6" x2="8.5" y2="5.6"/>
    <line x1="14.5" y1="4.6" x2="15.5" y2="5.6"/>
    <line x1="12" y1="0.5" x2="12" y2="-0.5"/>
    <line x1="12" y1="5.1" x2="12" y2="6.1"/>
  </g>
</svg>